<?xml version="1.0" encoding="UTF-8"?>
<svg id="Layer_1" xmlns="http://www.w3.org/2000/svg" version="1.1" viewBox="0 0 684.33 311.8">
  <!-- Generator: Adobe Illustrator 29.1.0, SVG Export Plug-In . SVG Version: 2.1.0 Build 142)  -->
  <defs>
    <style>
      .st0 {
        fill: #fff;
      }

      .st1 {
        fill: #3486ff;
      }
    </style>
  </defs>
  <g>
    <ellipse class="st1" cx="275.34" cy="93.39" rx="9.02" ry="54.48"/>
    <ellipse class="st1" cx="257.99" cy="93.39" rx="4.16" ry="31.58"/>
    <path class="st1" d="M414.14,35.39c-3.93,0-7.53,4.9-10.35,13.06-.42,1.2-2.15,1.09-2.39-.16-4.05-20.78-10.82-34.41-18.49-34.41-5.87,0-11.22,7.99-15.22,21.06-.37,1.22-2.11,1.16-2.4-.08-4.83-21.25-12.24-34.85-20.55-34.85-7.24,0-13.79,10.31-18.56,27.02-.32,1.12-1.88,1.21-2.33.13-3.56-8.38-7.83-13.27-12.42-13.27-12.4,0-22.45,35.58-22.45,79.46s10.05,79.46,22.45,79.46c4.59,0,8.86-4.89,12.42-13.27.46-1.08,2.01-1,2.33.13,4.76,16.7,11.32,27.02,18.56,27.02,8.31,0,15.72-13.6,20.55-34.85.28-1.24,2.02-1.3,2.4-.08,4,13.07,9.35,21.06,15.22,21.06,7.67,0,14.44-13.62,18.49-34.41.24-1.25,1.97-1.37,2.39-.16,2.82,8.16,6.42,13.06,10.35,13.06,9.04,0,16.37-25.94,16.37-57.95s-7.33-57.95-16.37-57.95ZM357.33,93.98c-6,0-10.86-7.74-10.86-17.29s4.86-17.28,10.86-17.28,10.86,7.74,10.86,17.28-4.86,17.29-10.86,17.29ZM389.9,93.98c-6,0-10.86-7.74-10.86-17.29s4.86-17.28,10.86-17.28,10.86,7.74,10.86,17.28-4.86,17.29-10.86,17.29Z"/>
  </g>
  <g>
    <path class="st0" d="M0,310.5v-87.93h18.35v71.86h45.26v16.07H0Z"/>
    <path class="st0" d="M97.59,311.7c-9.05,0-15.99-2.39-20.84-7.16-4.85-4.78-7.27-11.29-7.27-19.54v-39.62h18.02v36.15c0,4.71,1.21,8.23,3.64,10.58s6.06,3.53,10.91,3.53,8.85-1.27,11.56-3.8c2.71-2.53,4.07-6.15,4.07-10.85v-35.6h18.02v47.33h8.9v17.8h-18.24v-10.64h-4.56c-2.6,3.84-5.77,6.77-9.5,8.79-3.73,2.03-8.63,3.04-14.71,3.04Z"/>
    <path class="st0" d="M185.18,311.8c-6.8,0-12.75-1.39-17.86-4.18-5.1-2.78-9.08-6.71-11.94-11.78-2.86-5.06-4.29-11.03-4.29-17.91s1.41-12.85,4.23-17.91c2.82-5.07,6.8-8.99,11.94-11.78,5.14-2.79,11.11-4.18,17.91-4.18,8.61,0,15.7,2.17,21.28,6.51,5.57,4.34,9.08,10.31,10.53,17.91h-18.13c-.94-2.82-2.57-4.99-4.88-6.51-2.32-1.52-5.25-2.28-8.79-2.28-4.85,0-8.74,1.59-11.67,4.78-2.93,3.18-4.4,7.67-4.4,13.46s1.48,10.28,4.45,13.46c2.97,3.18,6.84,4.78,11.61,4.78,7.67,0,12.34-3.26,14-9.77h18.13c-1.3,7.96-4.74,14.18-10.31,18.67-5.57,4.49-12.85,6.73-21.82,6.73Z"/>
    <path class="st0" d="M234.57,238.97c-2.75,0-5.08-.96-7-2.87-1.92-1.92-2.87-4.25-2.87-7s.96-5.08,2.87-7,4.25-2.88,7-2.88,5.08.96,7,2.88c1.92,1.92,2.88,4.25,2.88,7s-.96,5.08-2.88,7-4.25,2.87-7,2.87ZM225.56,310.5v-65.13h18.02v65.13h-18.02Z"/>
    <path class="st0" d="M285.81,311.8c-6.66,0-12.32-1.41-16.99-4.23-4.67-2.82-8.2-6.79-10.58-11.89-2.39-5.1-3.58-11.02-3.58-17.75s1.16-12.76,3.47-17.86c2.31-5.1,5.7-9.05,10.15-11.83,4.45-2.79,9.79-4.18,16.01-4.18,4.78,0,8.88.89,12.32,2.66,3.44,1.78,6.1,4.29,7.98,7.55h.43v-34.95h18.02v73.38h8.9v17.8h-18.24v-10.64h-4.56c-2.32,3.76-5.41,6.7-9.28,8.79-3.87,2.1-8.56,3.15-14.06,3.15ZM289.17,296.17c4.85,0,8.7-1.36,11.56-4.07,2.86-2.71,4.29-6.46,4.29-11.24v-5.86c0-4.78-1.43-8.52-4.29-11.23-2.86-2.71-6.71-4.07-11.56-4.07-5.5,0-9.62,1.63-12.37,4.88-2.75,3.26-4.12,7.71-4.12,13.35s1.37,10.09,4.12,13.35c2.75,3.26,6.88,4.88,12.37,4.88Z"/>
    <path class="st0" d="M363.1,311.7c-7.67,0-13.68-1.86-18.02-5.59-4.34-3.73-6.51-8.63-6.51-14.71,0-6.44,2.24-11.4,6.73-14.87,4.49-3.47,10.93-5.21,19.32-5.21h18.67v-2.5c0-7.02-4.2-10.53-12.59-10.53-7.31,0-11.72,2.53-13.24,7.6h-17.91c1.45-7.16,4.81-12.59,10.09-16.28,5.28-3.69,12.3-5.54,21.06-5.54,9.7,0,17.1,2.17,22.2,6.51,5.1,4.34,7.65,10.68,7.65,19v23.12h8.47v17.8h-18.24v-10.64h-4.56c-2.24,3.76-5.25,6.68-9.01,8.74-3.76,2.06-8.47,3.09-14.11,3.09ZM365.81,298.02c3.4,0,6.4-.62,9.01-1.85,2.6-1.23,4.67-2.87,6.19-4.94,1.52-2.06,2.28-4.4,2.28-7v-.98h-17.8c-6.51,0-9.77,2.42-9.77,7.27,0,2.39.9,4.23,2.71,5.54,1.81,1.3,4.27,1.95,7.38,1.95Z"/>
    <path class="st0" d="M409.07,310.5c-1.21,0-1.82-.43-1.82-1.3,0-.96.87-1.56,2.6-1.82l2.61-.39c1.91-.26,3.23-.72,3.97-1.37.74-.65,1.28-1.89,1.63-3.71l17.72-76.59c.43-1.83.43-3.04,0-3.65-.44-.61-1.52-1.08-3.26-1.43l-2.61-.52c-1.13-.26-1.69-.73-1.69-1.43,0-1.04.78-1.56,2.34-1.56h43.51c2.26,0,3.17,1,2.73,2.99l-4.04,21.62c-.26,1.48-.96,2.21-2.09,2.21-1.22,0-1.74-.56-1.56-1.69l.39-4.56c.43-4.43.06-7.9-1.11-10.42-1.17-2.52-2.91-4.3-5.21-5.34-2.3-1.04-4.97-1.56-8.01-1.56-3.47,0-5.99.5-7.55,1.5-1.56,1-2.65,2.76-3.26,5.28l-7.16,31.39c-.26,1.22.22,1.83,1.43,1.83h6.64c3.82,0,6.6-2.04,8.34-6.12l2.87-6.51c.43-1.13,1.13-1.69,2.09-1.69.52,0,.93.2,1.24.59.3.39.37.93.2,1.63l-6.77,29.31c-.44,1.48-1.17,2.22-2.21,2.22s-1.56-.56-1.56-1.69l.13-6.38c.08-3.04-.28-5.04-1.11-5.99-.82-.95-2.24-1.43-4.23-1.43h-6.51c-1.3,0-2.09.61-2.34,1.82l-7.56,32.7c-.7,3.13-.39,5.38.91,6.77,1.3,1.39,4.08,2.09,8.34,2.09,2.61,0,5.19-.41,7.75-1.24,2.56-.82,4.99-2.41,7.3-4.76,2.3-2.34,4.41-5.73,6.32-10.16l3.13-7.3c.43-1.13,1.13-1.69,2.09-1.69,1.3,0,1.74.74,1.3,2.21l-6.64,23.19c-.52,2-1.82,3-3.91,3h-45.33Z"/>
    <path class="st0" d="M474.07,311.8c-2.43,0-4.28-.67-5.54-2.02-1.26-1.35-1.89-3.1-1.89-5.27,0-2,.5-3.65,1.5-4.95,1-1.3,2.32-1.95,3.97-1.95,1.39,0,2.41.35,3.06,1.04.65.7,1.15,1.5,1.5,2.41s.74,1.72,1.17,2.41c.43.7,1.13,1.04,2.09,1.04,2.17,0,4.49-2.34,6.97-7.04,2.48-4.69,4.84-10.68,7.1-17.98.43-1.21.69-2.3.78-3.26.09-.95.09-2.04,0-3.26l-1.04-16.15c-.09-2.26-.48-3.84-1.17-4.75-.7-.91-1.56-1.37-2.61-1.37-1.91,0-3.73,1.15-5.47,3.45-1.74,2.3-3.17,6.67-4.3,13.09-.26,1.13-.83,1.69-1.69,1.69-1.22,0-1.69-.78-1.43-2.34,1.04-5.99,2.49-10.68,4.36-14.07,1.87-3.39,3.86-5.77,5.99-7.16,2.13-1.39,4.1-2.08,5.93-2.08,2.69,0,4.8.93,6.32,2.8,1.52,1.87,2.41,5.06,2.67,9.58l.39,6.12c.08.52.32.8.72.85.39.05.72-.2.98-.72,3.13-6.86,6.14-11.68,9.05-14.46,2.91-2.78,5.97-4.17,9.19-4.17,2.43,0,4.28.67,5.53,2.02,1.26,1.35,1.89,3.1,1.89,5.27,0,2-.48,3.65-1.43,4.95-.96,1.3-2.3,1.95-4.04,1.95-1.39,0-2.41-.35-3.06-1.04-.65-.69-1.15-1.5-1.5-2.41-.35-.91-.72-1.72-1.11-2.41-.39-.69-1.02-1.04-1.89-1.04-1.3,0-2.78.98-4.43,2.93-1.65,1.95-3.21,4.54-4.69,7.75-1.48,3.21-2.69,6.77-3.65,10.68-.26,1.22-.41,2.3-.45,3.26-.05.96-.02,2.04.06,3.26l1.17,19.02c.17,2.69.65,4.6,1.43,5.73.78,1.13,1.82,1.69,3.13,1.69,1.65,0,3.34-1.24,5.08-3.71,1.74-2.48,3.17-6.92,4.3-13.35.26-1.13.87-1.69,1.82-1.69,1.04,0,1.48.78,1.3,2.34-.78,5.91-2.02,10.55-3.71,13.94-1.69,3.39-3.54,5.78-5.54,7.16-2,1.39-3.91,2.09-5.73,2.09-3.21,0-5.69-1.02-7.42-3.06-1.74-2.04-2.78-5.53-3.13-10.48l-.65-9.77c-.09-.61-.31-.91-.65-.91s-.65.26-.91.78l-2.34,5.73c-4.95,11.9-10.94,17.84-17.98,17.84Z"/>
    <path class="st0" d="M539.99,311.68c-3.13,0-5.56-1.35-7.3-4.04-1.74-2.69-2.61-6.64-2.61-11.85s.7-9.92,2.09-14.91c1.39-4.99,3.3-9.75,5.73-14.26,2.43-4.51,5.19-8.51,8.27-11.98,3.08-3.47,6.34-6.23,9.77-8.27,3.43-2.04,6.84-3.06,10.23-3.06,1.65,0,3.21.33,4.69.98,1.48.65,2.69,1.67,3.65,3.06.52.78,1.04,1.17,1.56,1.17s1.04-.39,1.56-1.17c.96-1.39,1.74-2.28,2.34-2.67.61-.39,1.17-.59,1.69-.59,1.13,0,1.56.61,1.3,1.82l-11.59,49.89c-1.3,5.65-.43,8.47,2.61,8.47,2,0,3.8-1.35,5.41-4.04,1.61-2.69,3.23-6.86,4.88-12.51.26-.96.82-1.43,1.69-1.43.61,0,1,.26,1.17.78.17.52.17,1.13,0,1.83-1.65,8.16-3.86,14-6.64,17.52-2.78,3.52-6.12,5.28-10.03,5.28-3.39,0-5.8-1.43-7.23-4.3-1.43-2.87-1.58-6.77-.45-11.72l1.69-7.16c.17-.61.06-.95-.33-1.04s-.72.13-.98.65c-4.78,8.77-9.01,14.89-12.7,18.37-3.69,3.47-7.19,5.21-10.48,5.21ZM543.24,305.03c2.08,0,4.38-1.26,6.9-3.78,2.52-2.52,5.02-5.77,7.49-9.77,2.48-3.99,4.75-8.29,6.84-12.9,2.09-4.6,3.75-9.03,5.02-13.29,1.26-4.25,1.89-7.86,1.89-10.81,0-5.3-1.87-7.95-5.6-7.95-2.26,0-4.65,1.02-7.16,3.06-2.52,2.04-4.93,4.8-7.23,8.27-2.3,3.47-4.39,7.4-6.25,11.79-1.87,4.39-3.37,8.94-4.49,13.68-1.13,4.73-1.69,9.36-1.69,13.87,0,3.04.37,5.1,1.11,6.19.74,1.09,1.8,1.63,3.19,1.63Z"/>
    <path class="st0" d="M667.12,311.68c-3.13,0-5.47-1.3-7.03-3.91-1.56-2.61-1.65-6.64-.26-12.12l10.03-37.77c.96-3.39,1.11-5.73.45-7.03-.65-1.3-1.58-1.95-2.8-1.95-1.74,0-3.74,1.19-5.99,3.58-2.26,2.39-4.62,5.62-7.1,9.7-2.48,4.08-4.88,8.73-7.23,13.94-2.34,5.21-4.52,10.64-6.51,16.28-2,5.65-3.65,11.2-4.95,16.67-.26.96-.87,1.43-1.82,1.43h-5.08c-1.22,0-1.69-.56-1.43-1.69l11.98-50.93c.78-3.39.89-5.73.33-7.03s-1.46-1.95-2.67-1.95c-1.65,0-3.61,1.19-5.86,3.58-2.26,2.39-4.6,5.62-7.03,9.7-2.43,4.08-4.82,8.73-7.16,13.94-2.34,5.21-4.51,10.64-6.51,16.28-2,5.65-3.61,11.2-4.82,16.67-.26.96-.87,1.43-1.82,1.43h-5.34c-1.22,0-1.69-.56-1.43-1.69l12.37-51.97c.43-1.91.5-3.41.2-4.49-.31-1.08-1.11-1.63-2.41-1.63-1.56,0-3.28,1.15-5.15,3.45-1.87,2.3-3.97,6.67-6.32,13.09-.35,1.13-.96,1.69-1.82,1.69-1.3,0-1.65-.78-1.04-2.34,1.91-5.99,3.93-10.68,6.06-14.07,2.13-3.39,4.28-5.77,6.45-7.16,2.17-1.39,4.17-2.08,5.99-2.08,2.87,0,4.9,1.06,6.12,3.19,1.21,2.13,1.26,5.62.13,10.49l-3.26,14.07c-.09.61.04.96.39,1.04.35.09.65-.13.91-.65,5.04-10.42,9.59-17.71,13.68-21.88,4.08-4.17,7.82-6.25,11.2-6.25,3.21,0,5.49,1.3,6.84,3.91,1.35,2.61,1.41,6.6.2,11.98l-2.73,11.85c-.09.61.04.96.39,1.04.35.09.65-.13.91-.65,3.3-7.03,6.4-12.61,9.31-16.74,2.91-4.12,5.67-7.05,8.27-8.79,2.6-1.74,5.04-2.6,7.29-2.6,3.21,0,5.56,1.3,7.04,3.91,1.47,2.61,1.47,6.6,0,11.98l-9.9,37.78c-.61,2.43-.65,4.26-.13,5.47.52,1.22,1.47,1.82,2.87,1.82,1.74,0,3.45-1.15,5.14-3.45,1.69-2.3,3.45-6.66,5.28-13.09.26-.96.82-1.43,1.69-1.43.69,0,1.11.26,1.24.78.13.52.11,1.13-.06,1.83-1.65,5.91-3.43,10.53-5.34,13.87-1.91,3.34-3.84,5.67-5.8,6.97-1.95,1.3-3.93,1.95-5.93,1.95Z"/>
  </g>
</svg>