<?xml version="1.0" encoding="UTF-8"?>
<svg id="Layer_1" xmlns="http://www.w3.org/2000/svg" version="1.1" viewBox="0 0 768.29 152.77">
  <!-- Generator: Adobe Illustrator 29.1.0, SVG Export Plug-In . SVG Version: 2.1.0 Build 142)  -->
  <defs>
    <style>
      .st0 {
        fill: #fff;
      }

      .st1 {
        fill: #3486ff;
      }
    </style>
  </defs>
  <g>
    <path class="st0" d="M735.71,55.73h-96.64c-17.99,0-32.58,14.59-32.58,32.58s14.59,32.58,32.58,32.58h96.64c17.99,0,32.58-14.59,32.58-32.58s-14.59-32.58-32.58-32.58Z"/>
    <g>
      <path class="st1" d="M634.25,105.48c-.45,0-.68-.16-.68-.49,0-.36.33-.58.97-.68l.97-.15c.71-.1,1.21-.27,1.48-.51.27-.24.48-.7.61-1.39l6.61-28.59c.16-.68.16-1.13,0-1.36-.16-.23-.57-.4-1.22-.54l-.97-.19c-.42-.1-.63-.28-.63-.54,0-.39.29-.58.88-.58h16.24c.84,0,1.18.37,1.02,1.12l-1.51,8.07c-.1.55-.36.83-.78.83-.45,0-.65-.21-.58-.63l.15-1.7c.16-1.65.02-2.95-.41-3.89-.44-.94-1.09-1.61-1.94-1.99s-1.86-.59-2.99-.59c-1.3,0-2.24.19-2.82.56-.58.37-.99,1.03-1.21,1.97l-2.68,11.72c-.1.46.08.68.54.68h2.48c1.43,0,2.46-.76,3.11-2.28l1.07-2.43c.16-.42.42-.63.78-.63.2,0,.35.07.46.22.11.15.14.35.07.61l-2.53,10.94c-.16.55-.44.83-.83.83s-.58-.21-.58-.63l.05-2.38c.03-1.14-.11-1.88-.41-2.24-.31-.36-.83-.53-1.58-.53h-2.43c-.48,0-.78.23-.88.68l-2.82,12.21c-.26,1.17-.15,2.01.34,2.53.49.52,1.52.78,3.11.78.97,0,1.94-.15,2.89-.46.95-.31,1.86-.9,2.72-1.77s1.65-2.14,2.36-3.79l1.17-2.72c.16-.42.42-.63.78-.63.48,0,.65.28.48.83l-2.48,8.66c-.19.75-.68,1.12-1.46,1.12h-16.92Z"/>
      <path class="st1" d="M658.51,105.97c-.91,0-1.6-.25-2.07-.75-.47-.5-.71-1.16-.71-1.97,0-.74.19-1.36.56-1.85.37-.49.87-.73,1.48-.73.52,0,.9.13,1.14.39.24.26.43.56.56.9.13.34.28.64.44.9s.42.39.78.39c.81,0,1.68-.88,2.6-2.62.92-1.75,1.81-3.99,2.65-6.71.16-.45.26-.86.29-1.22.03-.36.03-.76,0-1.21l-.39-6.03c-.03-.84-.18-1.43-.44-1.78-.26-.34-.59-.51-.97-.51-.71,0-1.39.43-2.04,1.29-.65.86-1.18,2.49-1.61,4.89-.1.42-.31.63-.63.63-.45,0-.63-.29-.54-.88.39-2.24.93-3.99,1.63-5.25s1.44-2.16,2.24-2.67c.79-.52,1.53-.78,2.21-.78,1,0,1.79.35,2.36,1.05.57.7.9,1.89,1,3.57l.15,2.28c.03.19.12.3.27.32.15.02.27-.07.37-.27,1.17-2.56,2.29-4.36,3.38-5.4s2.23-1.56,3.43-1.56c.91,0,1.6.25,2.07.75.47.5.7,1.16.7,1.97,0,.74-.18,1.36-.54,1.85s-.86.73-1.51.73c-.52,0-.9-.13-1.14-.39-.24-.26-.43-.56-.56-.9-.13-.34-.27-.64-.41-.9-.15-.26-.38-.39-.71-.39-.48,0-1.04.36-1.65,1.09s-1.2,1.69-1.75,2.89c-.55,1.2-1,2.53-1.36,3.99-.1.45-.15.86-.17,1.21-.02.36,0,.76.02,1.21l.44,7.1c.07,1,.24,1.72.54,2.14.29.42.68.63,1.17.63.62,0,1.25-.46,1.9-1.39.65-.92,1.18-2.59,1.61-4.99.1-.42.32-.63.68-.63.39,0,.55.29.49.88-.29,2.2-.76,3.94-1.39,5.2s-1.32,2.16-2.07,2.68c-.74.52-1.46.78-2.14.78-1.2,0-2.12-.38-2.77-1.14s-1.04-2.07-1.17-3.92l-.24-3.65c-.03-.22-.11-.34-.24-.34s-.24.1-.34.29l-.87,2.14c-1.85,4.44-4.09,6.66-6.71,6.66Z"/>
      <path class="st1" d="M683.11,105.92c-1.17,0-2.08-.5-2.72-1.51-.65-1-.97-2.48-.97-4.43s.26-3.7.78-5.57c.52-1.87,1.23-3.64,2.14-5.32.91-1.69,1.94-3.18,3.09-4.47,1.15-1.3,2.37-2.33,3.65-3.09,1.28-.76,2.55-1.14,3.82-1.14.62,0,1.2.12,1.75.37.55.24,1,.62,1.36,1.14.19.29.39.44.59.44s.39-.15.58-.44c.36-.52.65-.85.88-1,.23-.15.44-.22.63-.22.42,0,.58.23.49.68l-4.33,18.62c-.49,2.11-.16,3.16.97,3.16.75,0,1.42-.5,2.02-1.51s1.21-2.56,1.82-4.67c.1-.36.31-.53.63-.53.22,0,.37.1.44.29.07.19.07.42,0,.68-.62,3.05-1.44,5.23-2.48,6.54s-2.28,1.97-3.74,1.97c-1.26,0-2.16-.54-2.7-1.61-.53-1.07-.59-2.53-.17-4.37l.63-2.68c.06-.23.02-.36-.12-.39-.15-.03-.27.05-.37.24-1.78,3.27-3.36,5.56-4.74,6.86-1.38,1.3-2.68,1.94-3.91,1.94ZM684.33,103.44c.78,0,1.64-.47,2.58-1.41.94-.94,1.87-2.16,2.8-3.65s1.77-3.1,2.55-4.81c.78-1.72,1.4-3.37,1.87-4.96.47-1.59.71-2.93.71-4.04,0-1.98-.7-2.97-2.09-2.97-.84,0-1.73.38-2.67,1.14-.94.76-1.84,1.79-2.7,3.09s-1.64,2.76-2.33,4.4c-.7,1.64-1.26,3.34-1.68,5.1-.42,1.77-.63,3.49-.63,5.18,0,1.14.14,1.91.41,2.31.28.4.67.61,1.19.61Z"/>
      <path class="st1" d="M730.57,105.92c-1.17,0-2.04-.49-2.63-1.46-.58-.97-.62-2.48-.1-4.52l3.74-14.1c.36-1.26.41-2.14.17-2.63s-.59-.73-1.05-.73c-.65,0-1.39.45-2.24,1.34-.84.89-1.73,2.1-2.65,3.62-.92,1.52-1.82,3.26-2.7,5.2s-1.69,3.97-2.43,6.08c-.75,2.11-1.36,4.18-1.85,6.22-.1.36-.32.54-.68.54h-1.9c-.45,0-.63-.21-.53-.63l4.47-19.01c.29-1.26.33-2.14.12-2.63s-.54-.73-1-.73c-.62,0-1.35.45-2.19,1.34s-1.72,2.1-2.63,3.62-1.8,3.26-2.67,5.2-1.69,3.97-2.43,6.08c-.75,2.11-1.35,4.18-1.8,6.22-.1.36-.32.54-.68.54h-1.99c-.46,0-.63-.21-.54-.63l4.62-19.4c.16-.71.18-1.27.07-1.68-.11-.4-.41-.61-.9-.61-.59,0-1.22.43-1.92,1.29s-1.48,2.49-2.36,4.89c-.13.42-.36.63-.68.63-.48,0-.62-.29-.39-.88.71-2.24,1.47-3.99,2.26-5.25.8-1.26,1.6-2.16,2.41-2.67.81-.52,1.55-.78,2.24-.78,1.07,0,1.83.4,2.29,1.19.45.8.47,2.1.05,3.92l-1.22,5.25c-.03.23.02.36.15.39.13.03.24-.05.34-.24,1.88-3.89,3.58-6.61,5.1-8.17,1.52-1.55,2.92-2.33,4.18-2.33,1.2,0,2.05.49,2.55,1.46.5.97.53,2.46.07,4.48l-1.02,4.42c-.03.23.02.36.15.39.13.03.24-.05.34-.24,1.23-2.63,2.39-4.71,3.48-6.25,1.08-1.54,2.11-2.63,3.09-3.28.97-.65,1.88-.97,2.72-.97,1.2,0,2.07.49,2.63,1.46.55.97.55,2.46,0,4.48l-3.7,14.1c-.23.91-.24,1.59-.05,2.04s.55.68,1.07.68c.65,0,1.29-.43,1.92-1.29s1.29-2.49,1.97-4.89c.1-.36.31-.53.63-.53.26,0,.41.1.46.29.05.19.04.42-.03.68-.62,2.2-1.28,3.93-1.99,5.18-.71,1.25-1.43,2.12-2.16,2.6-.73.49-1.47.73-2.21.73Z"/>
    </g>
  </g>
  <g>
    <g>
      <ellipse class="st0" cx="17.61" cy="76.43" rx="7.38" ry="44.58"/>
      <ellipse class="st0" cx="3.41" cy="76.43" rx="3.41" ry="25.84"/>
      <path class="st0" d="M131.19,28.96c-3.21,0-6.16,4.01-8.47,10.69-.34.98-1.76.89-1.96-.13-3.31-17.01-8.86-28.16-15.13-28.16-4.81,0-9.18,6.54-12.46,17.23-.31,1-1.73.95-1.96-.07C87.26,11.13,81.2,0,74.4,0c-5.92,0-11.29,8.44-15.19,22.11-.26.92-1.54.99-1.91.11-2.91-6.86-6.41-10.86-10.17-10.86-10.15,0-18.37,29.11-18.37,65.03s8.23,65.03,18.37,65.03c3.76,0,7.25-4,10.17-10.86.37-.88,1.65-.81,1.91.11,3.9,13.67,9.26,22.11,15.19,22.11,6.8,0,12.86-11.13,16.82-28.52.23-1.02,1.65-1.07,1.96-.07,3.27,10.7,7.65,17.23,12.46,17.23,6.28,0,11.82-11.15,15.13-28.16.2-1.02,1.62-1.12,1.96-.13,2.31,6.68,5.25,10.69,8.47,10.69,7.4,0,13.4-21.23,13.4-47.42s-6-47.42-13.4-47.42ZM84.7,76.91c-4.91,0-8.89-6.33-8.89-14.15s3.98-14.15,8.89-14.15,8.89,6.33,8.89,14.15-3.98,14.15-8.89,14.15ZM111.36,76.91c-4.91,0-8.89-6.33-8.89-14.15s3.98-14.15,8.89-14.15,8.89,6.33,8.89,14.15-3.98,14.15-8.89,14.15Z"/>
    </g>
    <g>
      <path class="st0" d="M173.89,122.22V30.66h19.1v74.83h47.13v16.73h-66.24Z"/>
      <path class="st0" d="M275.5,123.46c-9.42,0-16.65-2.49-21.7-7.46-5.05-4.97-7.57-11.75-7.57-20.35v-41.26h18.76v37.64c0,4.9,1.26,8.57,3.79,11.02s6.31,3.67,11.36,3.67,9.21-1.32,12.04-3.96c2.83-2.64,4.24-6.4,4.24-11.3v-37.07h18.76v49.28h9.27v18.54h-18.99v-11.08h-4.75c-2.71,4-6.01,7.05-9.89,9.16-3.88,2.11-8.99,3.17-15.32,3.17Z"/>
      <path class="st0" d="M366.72,123.58c-7.08,0-13.28-1.45-18.59-4.35-5.31-2.9-9.46-6.99-12.43-12.26-2.98-5.27-4.46-11.49-4.46-18.65s1.47-13.38,4.41-18.65c2.94-5.27,7.08-9.36,12.43-12.26,5.35-2.9,11.57-4.35,18.65-4.35,8.97,0,16.35,2.26,22.15,6.78,5.8,4.52,9.46,10.74,10.97,18.65h-18.88c-.98-2.94-2.68-5.2-5.09-6.78-2.41-1.58-5.46-2.37-9.16-2.37-5.05,0-9.1,1.66-12.15,4.97-3.05,3.32-4.58,7.99-4.58,14.02s1.54,10.7,4.63,14.01c3.09,3.32,7.12,4.97,12.09,4.97,7.99,0,12.85-3.39,14.58-10.17h18.88c-1.36,8.29-4.94,14.77-10.74,19.44-5.8,4.67-13.38,7.01-22.72,7.01Z"/>
      <path class="st0" d="M418.14,47.73c-2.86,0-5.29-1-7.29-2.99-2-2-2.99-4.43-2.99-7.29s1-5.29,2.99-7.29,4.43-3,7.29-3,5.29,1,7.29,3c2,2,3,4.43,3,7.29s-1,5.29-3,7.29-4.43,2.99-7.29,2.99ZM408.76,122.22V54.4h18.76v67.82h-18.76Z"/>
      <path class="st0" d="M471.5,123.58c-6.93,0-12.83-1.47-17.69-4.41-4.86-2.94-8.53-7.07-11.02-12.38-2.49-5.31-3.73-11.47-3.73-18.48s1.21-13.28,3.62-18.59c2.41-5.31,5.93-9.42,10.57-12.32,4.64-2.9,10.19-4.35,16.67-4.35,4.97,0,9.25.92,12.83,2.77,3.58,1.85,6.35,4.46,8.31,7.86h.45V27.27h18.76v76.41h9.27v18.54h-18.99v-11.08h-4.75c-2.41,3.92-5.63,6.97-9.66,9.16-4.03,2.19-8.91,3.28-14.64,3.28ZM475,107.3c5.05,0,9.06-1.41,12.04-4.24,2.97-2.83,4.46-6.73,4.46-11.7v-6.1c0-4.97-1.49-8.87-4.46-11.7-2.98-2.83-6.99-4.24-12.04-4.24-5.73,0-10.02,1.7-12.89,5.09-2.86,3.39-4.29,8.03-4.29,13.9s1.43,10.51,4.29,13.9c2.86,3.39,7.16,5.09,12.89,5.09Z"/>
      <path class="st0" d="M551.97,123.46c-7.99,0-14.24-1.94-18.77-5.82-4.52-3.88-6.78-8.99-6.78-15.32,0-6.7,2.34-11.87,7.01-15.49,4.67-3.62,11.38-5.43,20.12-5.43h19.44v-2.6c0-7.31-4.37-10.96-13.11-10.96-7.61,0-12.21,2.64-13.79,7.91h-18.65c1.51-7.46,5.01-13.11,10.51-16.96,5.5-3.84,12.81-5.77,21.93-5.77,10.1,0,17.8,2.26,23.12,6.78,5.31,4.52,7.97,11.12,7.97,19.78v24.08h8.82v18.54h-18.99v-11.08h-4.75c-2.34,3.92-5.46,6.95-9.38,9.1-3.92,2.15-8.82,3.22-14.69,3.22ZM554.8,109.22c3.54,0,6.67-.64,9.38-1.92,2.71-1.28,4.86-2.99,6.44-5.14,1.58-2.15,2.37-4.58,2.37-7.29v-1.02h-18.54c-6.78,0-10.17,2.53-10.17,7.57,0,2.49.94,4.41,2.83,5.77,1.88,1.36,4.45,2.03,7.69,2.03Z"/>
    </g>
  </g>
</svg>